<svg width="162" height="18" viewBox="0 0 162 18" fill="none" xmlns="http://www.w3.org/2000/svg">
<path d="M15.748 0.916016H15.9336V17H13.4629V8.26953L8.23828 16.7363H8.21875L2.98438 8.25977V17H0.513672V0.916016H0.699219L8.22852 12.3613L15.748 0.916016ZM29.957 17L28.8828 14.6074H21.4316L20.3574 17H17.6816L25.084 0.935547H25.2305L32.6328 17H29.957ZM22.3887 12.4883H27.9258L25.1621 6.33594L22.3887 12.4883ZM44.5566 1.21875H47.0371V17.2734H46.9199L36.8516 6.75586V17.0195H34.3809V0.984375H34.5078L44.5566 11.4824V1.21875ZM64.9473 8.40625C64.9863 8.76758 65.0156 9.19727 65.0156 9.63672C65.0156 14.3145 61.6172 17.2637 57.5254 17.2637C52.9453 17.2637 49.3125 13.6113 49.3125 9.14844C49.3125 4.67578 52.9648 0.994141 57.4375 0.994141C59.4199 1.00391 61.6855 1.96094 63.1699 3.40625L61.793 5.45703C60.5625 4.24609 58.9023 3.48438 57.4082 3.48438C54.5371 3.48438 51.8223 5.88672 51.8223 9.14844C51.8223 12.2344 54.2734 14.7734 57.6328 14.7734C60.3379 14.7734 62.3691 13.123 62.3691 10.7207V10.6719H57.4961V8.40625H64.9473ZM74.6641 17.2539C70.1914 17.2539 66.5391 13.6016 66.5391 9.14844C66.5391 4.65625 70.1914 0.984375 74.6738 0.984375C79.1465 0.984375 82.8184 4.65625 82.8184 9.14844C82.8184 13.6016 79.1465 17.2539 74.6641 17.2539ZM74.6641 14.7539C77.7695 14.7539 80.3184 12.2246 80.3184 9.12891C80.3184 6.01367 77.7695 3.47461 74.6641 3.47461C71.5586 3.47461 69.0293 6.01367 69.0293 9.12891C69.0293 12.2246 71.5586 14.7539 74.6641 14.7539ZM82.3301 17L87.3887 8.82617L82.6719 1.25781H85.5234L88.834 6.64844L92.125 1.25781H94.9766L90.2598 8.81641L95.3184 17H92.4961L88.8242 11.0625L85.1621 17H82.3301ZM97.0762 17V1.25781H102.34C105.387 1.25781 107.877 3.5918 107.877 6.45312C107.877 9.25586 105.387 11.541 102.34 11.541H99.5469V17H97.0762ZM102.34 9.09961C104.029 9.10938 105.406 7.9082 105.406 6.43359C105.406 4.92969 104.029 3.70898 102.34 3.70898H99.5469V9.08984L102.34 9.09961ZM112.32 14.5391H119.342V17H109.85V1.25781H112.32V14.5391ZM128.023 17.2539C123.551 17.2539 119.898 13.6016 119.898 9.14844C119.898 4.65625 123.551 0.984375 128.033 0.984375C132.506 0.984375 136.178 4.65625 136.178 9.14844C136.178 13.6016 132.506 17.2539 128.023 17.2539ZM128.023 14.7539C131.129 14.7539 133.678 12.2246 133.678 9.12891C133.678 6.01367 131.129 3.47461 128.023 3.47461C124.918 3.47461 122.389 6.01367 122.389 9.12891C122.389 12.2246 124.918 14.7539 128.023 14.7539ZM150.133 17H147.096L142.857 10.9062H140.924V17H138.453L138.443 1.25781H143.336C146.266 1.25781 148.668 3.51367 148.668 6.31641C148.668 8.34766 147.359 10.1152 145.553 10.7012L150.133 17ZM140.914 8.85547H143.395C144.879 8.86523 146.119 7.66406 146.119 6.25781C146.119 4.79297 144.859 3.70898 143.395 3.70898H140.914V8.85547ZM161.178 3.68945H154.273V7.72266H160.23V10.1836H154.273V14.5391H161.178V17H151.803V1.25781H161.178V3.68945Z" fill="black"/>
</svg>
