<svg width="400" height="400" viewBox="0 0 400 400" fill="none" xmlns="http://www.w3.org/2000/svg">
<path d="M155 307C232.32 307 295 244.32 295 167C295 89.6801 232.32 27 155 27C77.6801 27 15 89.6801 15 167C15 244.32 77.6801 307 155 307Z" stroke="black" stroke-opacity="0.2" stroke-width="10" stroke-linecap="round" stroke-linejoin="round" stroke-dasharray="40 40"/>
<path d="M328.322 390.678C338.085 400.441 353.915 400.441 363.678 390.678C373.441 380.915 373.441 365.085 363.678 355.322L328.322 390.678ZM277.678 269.322L260 251.645L224.645 287L242.322 304.678L277.678 269.322ZM363.678 355.322L277.678 269.322L242.322 304.678L328.322 390.678L363.678 355.322Z" fill="black"/>
<path fill-rule="evenodd" clip-rule="evenodd" d="M264.172 68.2111C269.572 63.1491 275.724 59.0475 283.123 56.4516C302.28 49.7281 327.798 55.2315 345.165 64.7326C359.079 72.3386 373.487 84.2799 384 96.948C369.541 102.555 349.345 105.229 327.435 106.553C310.691 107.565 295.22 105.073 280.319 97.4932L280.994 98.3239L280.397 97.8825C272.557 92.4311 264.925 86.9537 258.046 81.2946L264.042 68.4188L264.172 68.2111Z" fill="black"/>
<path fill-rule="evenodd" clip-rule="evenodd" d="M263.86 68.5225L264.172 68.211L264.068 68.3927L258.072 81.2685C253.866 77.8159 249.713 73.922 245.767 70.7031L256.021 50.2732C257.89 46.535 262.433 45.0294 266.171 46.8985C269.909 48.7675 271.415 53.3104 269.546 57.0485L263.86 68.5225Z" fill="black"/>
<path fill-rule="evenodd" clip-rule="evenodd" d="M278.268 116.469C274.556 110.421 270.065 104.684 264.691 99.2844C259.422 94.0147 253.269 89.0305 246.156 84.4357C225.545 76.7777 207.166 74.675 190.811 77.1931C173.367 79.8669 158.129 87.8883 144.941 100.115C120.306 122.959 119.06 141.494 117.502 164.442C116.853 173.969 116.178 184.197 113.946 195.827C111.48 208.755 107.664 220.203 102.861 230.067C97.7733 240.529 91.569 249.225 84.6898 256.026C78.8749 263.84 76.6944 270.356 78.3298 275.522C78.3557 275.6 78.3817 275.678 78.4077 275.755C80.1989 281.077 86.1954 285.802 96.5532 289.903C96.683 289.955 96.8128 290.007 96.9426 290.059C130.871 303.454 166.072 304.103 197.327 293.486C228.374 282.946 255.528 261.244 273.673 229.808C284.576 210.909 291.429 190.401 292.208 169.971C292.883 151.774 288.73 133.551 278.268 116.469ZM280.319 97.4932C283.616 101.465 286.575 105.567 289.171 109.824C301.034 129.163 305.733 149.801 304.954 170.439C304.097 193.049 296.621 215.556 284.732 236.193C264.951 270.434 235.305 294.083 201.429 305.609C167.396 317.16 129.132 316.485 92.2959 301.948C92.1661 301.896 92.0363 301.87 91.9065 301.818C77.7587 296.237 69.296 288.865 66.2587 279.753C66.2068 279.649 66.1809 279.519 66.1289 279.39C63.1436 269.941 66.103 259.453 74.7215 248.031C74.9032 247.771 75.1368 247.538 75.3704 247.304C81.367 241.463 86.8185 233.831 91.3354 224.538C95.6706 215.634 99.1231 205.25 101.382 193.439C103.458 182.562 104.133 172.749 104.73 163.611C106.47 137.834 107.871 117.066 136.219 90.7698C151.223 76.8556 168.72 67.692 188.812 64.5769C205.997 61.929 224.948 63.7202 245.793 70.7552C259.499 77.4527 271.207 86.175 280.319 97.4932Z" fill="black"/>
</svg>
